<svg width="24" height="25" viewBox="0 0 24 25" fill="none" xmlns="http://www.w3.org/2000/svg">
<path d="M12 22.5C6.47715 22.5 2 18.0228 2 12.5C2 6.97715 6.47715 2.5 12 2.5C17.5228 2.5 22 6.97715 22 12.5C21.9939 18.0203 17.5203 22.4939 12 22.5ZM4 12.672C4.04732 17.0732 7.64111 20.6095 12.0425 20.586C16.444 20.5622 19.9995 16.9875 19.9995 12.586C19.9995 8.18451 16.444 4.60977 12.0425 4.586C7.64111 4.56246 4.04732 8.09876 4 12.5V12.672ZM13 17.5H11V13.5H7V11.5H11V7.5H13V11.5H17V13.5H13V17.5Z" fill="white"/>
</svg>
