<svg width="411" height="368" viewBox="0 0 411 368" fill="none" xmlns="http://www.w3.org/2000/svg">
<path d="M205.5 74.8613L58.9188 210.109C58.9188 210.3 58.8759 210.581 58.7902 210.963C58.7063 211.343 58.6616 211.619 58.6616 211.815V348.767C58.6616 353.712 60.2769 357.998 63.5065 361.606C66.7352 365.217 70.5586 367.034 74.9776 367.034H172.866V257.468H238.134V367.038H336.022C340.44 367.038 344.269 365.225 347.493 361.606C350.723 358.001 352.344 353.713 352.344 348.767V211.815C352.344 211.055 352.251 210.482 352.086 210.109L205.5 74.8613Z" fill="url(#paint0_linear_674_605)"/>
<path d="M408.164 179.293L352.338 127.364V10.9524C352.338 8.29114 351.574 6.10255 350.04 4.38966C348.518 2.67876 346.563 1.82331 344.18 1.82331H295.235C292.854 1.82331 290.9 2.67876 289.368 4.38966C287.841 6.10255 287.077 8.29214 287.077 10.9524V66.5895L224.876 8.38208C219.444 3.43627 212.984 0.963867 205.505 0.963867C198.027 0.963867 191.569 3.43627 186.131 8.38208L2.83229 179.293C1.1331 180.812 0.201805 182.856 0.0285823 185.425C-0.143747 187.991 0.450031 190.233 1.8117 192.133L17.6169 213.248C18.9786 214.959 20.7608 216.005 22.9707 216.388C25.011 216.58 27.0513 215.912 29.0916 214.391L205.5 49.7554L381.91 214.39C383.273 215.717 385.054 216.38 387.264 216.38H388.03C390.236 216.004 392.015 214.951 393.384 213.244L409.191 192.132C410.55 190.228 411.146 187.99 410.969 185.421C410.795 182.859 409.86 180.815 408.164 179.293Z" fill="url(#paint1_linear_674_605)"/>
<defs>
<linearGradient id="paint0_linear_674_605" x1="205.503" y1="74.8613" x2="205.503" y2="367.038" gradientUnits="userSpaceOnUse">
<stop stop-color="#7A2BE5"/>
<stop offset="1" stop-color="#CB18B1"/>
</linearGradient>
<linearGradient id="paint1_linear_674_605" x1="205.499" y1="0.963867" x2="205.499" y2="216.42" gradientUnits="userSpaceOnUse">
<stop stop-color="#7A2BE5"/>
<stop offset="1" stop-color="#CB18B1"/>
</linearGradient>
</defs>
</svg>
