<svg width="115" height="68" viewBox="0 0 115 68" fill="none" xmlns="http://www.w3.org/2000/svg">
<path fill-rule="evenodd" clip-rule="evenodd" d="M57.2632 58.7958C51.1814 64.5039 42.999 68 34 68C15.2223 68 0 52.7777 0 34C0 15.2223 15.2223 0 34 0C42.999 0 51.1814 3.49611 57.2632 9.20418C63.3449 3.49611 71.5273 0 80.5263 0C99.304 0 114.526 15.2223 114.526 34C114.526 52.7777 99.304 68 80.5263 68C71.5273 68 63.3449 64.5039 57.2632 58.7958Z" fill="#424242"/>
<path d="M30.7852 12.104C30.735 12.1608 30.6954 12.2326 30.6954 12.2625C30.6954 12.2954 31.1759 13.6259 31.7619 15.2196C32.3478 16.8133 32.8335 18.1438 32.8441 18.1767C32.8573 18.2246 32.8335 18.2515 32.72 18.3202C32.4138 18.5026 32.0047 18.9123 31.7882 19.2531L31.6668 19.4475H29.5868C27.293 19.4475 27.3695 19.4415 27.1874 19.6358C27.0845 19.7495 27 19.9498 27 20.0903C27 20.1471 27.0185 20.2548 27.0422 20.3325C27.066 20.4103 27.7655 21.6451 28.6445 23.1521C29.4997 24.6262 31.2656 27.661 32.5643 29.8976C33.8656 32.1341 35.0693 34.2062 35.2409 34.4992C35.4098 34.7922 35.6025 35.151 35.6685 35.2916C35.8031 35.5906 35.9958 36.3022 36.1093 36.9211C36.265 37.7763 36.265 37.7673 36.265 42.6829C36.265 45.1526 36.2624 47.1769 36.2571 47.1829C36.2545 47.1888 35.3068 47.3952 34.1533 47.6433C32.9998 47.8915 32.0337 48.1008 32.01 48.1098C31.9651 48.1247 31.9625 48.2025 31.9625 49.2011V50.2745H37.6244H43.2864V49.2011C43.2864 48.2025 43.2837 48.1247 43.2415 48.1098C43.2151 48.1008 42.249 47.8915 41.0955 47.6433C39.942 47.3952 38.9944 47.1888 38.9917 47.1829C38.9865 47.1769 38.9838 45.1526 38.9838 42.6829C38.9838 37.7673 38.9838 37.7763 39.1396 36.9211C39.2531 36.2992 39.4457 35.5906 39.5804 35.2886C39.6464 35.148 39.8549 34.7653 40.0449 34.4364C40.235 34.1105 41.4386 32.0414 42.7189 29.8378C43.9991 27.6341 45.7491 24.6262 46.607 23.1521C47.4833 21.6451 48.1828 20.4103 48.2066 20.3325C48.2304 20.2548 48.2488 20.1471 48.2488 20.0903C48.2488 19.9498 48.1644 19.7495 48.0614 19.6358C47.8714 19.4325 48.3307 19.4475 42.0827 19.4475H36.426L36.3732 19.283C36.2386 18.8794 36.0222 18.4787 35.8321 18.2903C35.6896 18.1498 35.3253 17.9794 34.9716 17.8897C34.515 17.7731 33.7996 17.8209 33.3615 17.9973C33.2981 18.0212 33.2427 18.0392 33.2374 18.0332C33.2348 18.0272 32.7649 16.6907 32.2 15.0641C31.519 13.1057 31.1521 12.089 31.1151 12.0532C31.0228 11.9665 30.8881 11.9874 30.7852 12.104Z" fill="url(#paint0_linear_475_461)"/>
<path d="M15.8362 33.808V35.152H12.8602V38.392H11.3482V35.152H8.37222V33.808H11.3482V30.568H12.8602V33.808H15.8362ZM17.7662 43C17.7662 42.456 17.8142 41.912 17.9102 41.368C18.0062 40.808 18.1902 40.256 18.4622 39.712C18.7342 39.168 19.1342 38.648 19.6622 38.152C20.1902 37.64 20.8862 37.16 21.7502 36.712C22.2142 36.472 22.6942 36.24 23.1902 36.016C23.6862 35.776 24.1502 35.52 24.5822 35.248C25.0302 34.96 25.3822 34.64 25.6382 34.288C25.9102 33.92 26.0462 33.488 26.0462 32.992C26.0462 32.592 25.9262 32.2 25.6862 31.816C25.4622 31.432 25.1102 31.12 24.6302 30.88C24.1662 30.64 23.5822 30.52 22.8782 30.52C22.3662 30.52 21.9022 30.592 21.4862 30.736C21.0702 30.88 20.7022 31.064 20.3822 31.288C20.0622 31.496 19.7902 31.712 19.5662 31.936C19.3422 32.144 19.1582 32.32 19.0142 32.464L17.9822 31.336C18.0622 31.24 18.2382 31.072 18.5102 30.832C18.7982 30.576 19.1582 30.312 19.5902 30.04C20.0382 29.768 20.5582 29.536 21.1502 29.344C21.7582 29.152 22.4222 29.056 23.1422 29.056C24.1182 29.056 24.9502 29.232 25.6382 29.584C26.3422 29.92 26.8782 30.376 27.2462 30.952C27.6142 31.528 27.7982 32.152 27.7982 32.824C27.7982 33.48 27.6542 34.048 27.3662 34.528C27.0942 34.992 26.7342 35.4 26.2862 35.752C25.8542 36.088 25.3982 36.384 24.9182 36.64C24.4542 36.88 24.0302 37.088 23.6462 37.264C22.8942 37.616 22.2622 37.968 21.7502 38.32C21.2382 38.672 20.8302 39.032 20.5262 39.4C20.2222 39.752 19.9822 40.104 19.8062 40.456C19.6462 40.792 19.5342 41.144 19.4702 41.512H28.0622V43H17.7662Z" fill="white"/>
<path d="M61.3101 25.96L67.4061 40.912L73.4781 25.96H75.2301L68.1741 43H66.6381L59.5581 25.96H61.3101ZM75.3373 43V40.648H76.7533V43H75.3373ZM80.4602 43V25.96H82.1402V43H80.4602ZM85.8373 43V40.648H87.2533V43H85.8373ZM90.9602 43V25.96H98.0162C98.7522 25.96 99.4242 26.112 100.032 26.416C100.656 26.72 101.192 27.136 101.64 27.664C102.088 28.176 102.44 28.752 102.696 29.392C102.952 30.016 103.08 30.656 103.08 31.312C103.08 32.24 102.872 33.12 102.456 33.952C102.056 34.768 101.488 35.432 100.752 35.944C100.016 36.456 99.1522 36.712 98.1602 36.712H92.6402V43H90.9602ZM92.6402 35.224H98.0882C98.7602 35.224 99.3442 35.04 99.8402 34.672C100.336 34.304 100.72 33.824 100.992 33.232C101.264 32.64 101.4 32 101.4 31.312C101.4 30.608 101.24 29.96 100.92 29.368C100.6 28.776 100.176 28.312 99.6482 27.976C99.1362 27.624 98.5682 27.448 97.9442 27.448H92.6402V35.224Z" fill="white"/>
<defs>
<linearGradient id="paint0_linear_475_461" x1="37.6244" y1="50.2745" x2="37.6244" y2="12" gradientUnits="userSpaceOnUse">
<stop stop-color="#7C2AE4"/>
<stop offset="1" stop-color="#CB18B1"/>
</linearGradient>
</defs>
</svg>
